{"accessors":[{"bufferView":0,"componentType":5125,"count":134649,"max":[67384.0],"min":[0.0],"type":"SCALAR"},{"bufferView":1,"componentType":5126,"count":67385,"max":[250.39369201660157,249.8031463623047,268.44757080078127],"min":[0.0,0.0,0.0],"type":"VEC3"},{"bufferView":2,"componentType":5126,"count":67385,"max":[1.0,1.0,1.0],"min":[-1.0,-1.0,-1.0],"type":"VEC3"},{"bufferView":3,"componentType":5126,"count":67385,"max":[1.0,1.0],"min":[0.0,0.0],"type":"VEC2"},{"bufferView":4,"componentType":5125,"count":86106,"max":[43445.0],"min":[0.0],"type":"SCALAR"},{"bufferView":5,"componentType":5126,"count":43446,"max":[250.39369201660157,249.8031463623047,293.0445251464844],"min":[0.0,0.0,0.0],"type":"VEC3"},{"bufferView":6,"componentType":5126,"count":43446,"max":[0.997835636138916,0.997835636138916,1.0],"min":[-0.997835636138916,-0.997835636138916,-1.0],"type":"VEC3"},{"bufferView":7,"componentType":5126,"count":43446,"max":[1.0,1.0],"min":[0.0,0.0],"type":"VEC2"}],"asset":{"generator":"SimLab GLTF","version":"2.0"},"bufferViews":[{"buffer":0,"byteLength":538596,"target":34963},{"buffer":0,"byteLength":808620,"byteOffset":538596,"byteStride":12,"target":34962},{"buffer":0,"byteLength":808620,"byteOffset":1347216,"byteStride":12,"target":34962},{"buffer":0,"byteLength":539080,"byteOffset":2155836,"byteStride":8,"target":34962},{"buffer":0,"byteLength":344424,"byteOffset":2694916,"target":34963},{"buffer":0,"byteLength":521352,"byteOffset":3039340,"byteStride":12,"target":34962},{"buffer":0,"byteLength":521352,"byteOffset":3560692,"byteStride":12,"target":34962},{"buffer":0,"byteLength":347568,"byteOffset":4082044,"byteStride":8,"target":34962}],"buffers":[{"byteLength":4429612,"uri":"legobox.bin"}],"materials":[{"alphaMode":"OPAQUE","doubleSided":true,"pbrMetallicRoughness":{"baseColorFactor":[0.0,0.800000011920929,0.800000011920929,1.0],"metallicFactor":0.0}},{"alphaMode":"OPAQUE","doubleSided":true,"pbrMetallicRoughness":{"baseColorFactor":[0.3294117748737335,0.7411764860153198,0.8313725590705872,1.0],"metallicFactor":0.0}}],"meshes":[{"primitives":[{"attributes":{"NORMAL":2,"POSITION":1,"TEXCOORD_0":3},"indices":0,"material":0,"mode":4}]},{"primitives":[{"attributes":{"NORMAL":6,"POSITION":5,"TEXCOORD_0":7},"indices":4,"material":1,"mode":4}]}],"nodes":[{"children":[1,2],"matrix":[1.0,0.0,0.0,0.0,0.0,4.4896593387466768e-11,-1.0,0.0,0.0,1.0,4.4896593387466768e-11,0.0,0.0,0.0,0.0,1.0]},{"name":"Camera-2","rotation":[-0.7071067690849304,0.0,0.0,-0.7071067690849304],"translation":[-6.91782986450562e-8,-59.541648864746097,0.12998050451278687]},{"children":[3,7],"rotation":[0.0,0.0,0.0,-1.0],"scale":[0.05079999938607216,0.05079999938607216,0.05079999938607216],"translation":[-6.359999656677246,-6.340000152587891,-7.313350677490234]},{"children":[4],"rotation":[0.0,0.0,0.0,-1.0],"translation":[0.0,2.2737367544323206e-13,12.335962295532227]},{"name":"3DGeom-1","children":[6],"rotation":[0.0,0.0,0.0,-1.0]},{"mesh":0},{"children":[5]},{"children":[9],"rotation":[0.0,0.0,0.0,-1.0]},{"mesh":1},{"children":[8]}],"samplers":[{"wrapS":10497,"wrapT":10497}],"scene":0,"scenes":[{"nodes":[0]}]}