{"accessors":[{"bufferView":0,"componentType":5125,"count":291,"max":[158.0],"min":[0.0],"type":"SCALAR"},{"bufferView":1,"componentType":5126,"count":159,"max":[14.167462348937989,0.07874015718698502,7.4803147315979],"min":[0.005765614565461874,0.0,8.881784197001253e-16],"type":"VEC3"},{"bufferView":2,"componentType":5126,"count":159,"max":[1.0,1.0,0.7071067690849304],"min":[-1.0,-1.0,-1.0],"type":"VEC3"},{"bufferView":3,"componentType":5126,"count":159,"max":[3.5799999237060549,1.0090855360031129],"min":[-5.32530403137207,-2.4822847843170168],"type":"VEC2"},{"bufferView":4,"componentType":5125,"count":162,"max":[95.0],"min":[0.0],"type":"SCALAR"},{"bufferView":5,"componentType":5126,"count":96,"max":[14.167462348937989,7.4803147315979,7.4803147315979],"min":[0.005765614565461874,7.440944671630859,0.0],"type":"VEC3"},{"bufferView":6,"componentType":5126,"count":96,"max":[1.0,1.0,0.7071067690849304],"min":[-1.0,0.0,-0.7071067690849304],"type":"VEC3"},{"bufferView":7,"componentType":5126,"count":96,"max":[1.1754943508222876e-38,1.0],"min":[-3.569999933242798,-2.4822847843170168],"type":"VEC2"},{"bufferView":8,"componentType":5125,"count":198,"max":[111.0],"min":[0.0],"type":"SCALAR"},{"bufferView":9,"componentType":5126,"count":112,"max":[14.167462348937989,7.4803147315979,7.4803147315979],"min":[0.005765614565461874,0.0,7.440944671630859],"type":"VEC3"},{"bufferView":10,"componentType":5126,"count":112,"max":[1.0,1.0,1.0],"min":[-1.0,-0.7071067690849304,0.0],"type":"VEC3"},{"bufferView":11,"componentType":5126,"count":112,"max":[3.5799999237060549,7.080343723297119],"min":[-3.569999933242798,-1.1256561279296876],"type":"VEC2"},{"bufferView":12,"componentType":5125,"count":531,"max":[268.0],"min":[0.0],"type":"SCALAR"},{"bufferView":13,"componentType":5126,"count":269,"max":[14.167462348937989,7.4803147315979,0.03937007859349251],"min":[0.005765614565461874,0.0,0.0],"type":"VEC3"},{"bufferView":14,"componentType":5126,"count":269,"max":[1.0,1.0,7.145185469488563e-17],"min":[-1.0,-1.0,-1.0],"type":"VEC3"},{"bufferView":15,"componentType":5126,"count":269,"max":[5.720974922180176,1.0090855360031129],"min":[-3.569999933242798,-5.534873008728027],"type":"VEC2"},{"bufferView":16,"componentType":5125,"count":78,"max":[51.0],"min":[0.0],"type":"SCALAR"},{"bufferView":17,"componentType":5126,"count":52,"max":[14.17322826385498,7.474549293518066,7.474549293518066],"min":[14.167462348937989,0.005765614565461874,0.005765614565461874],"type":"VEC3"},{"bufferView":18,"componentType":5126,"count":52,"max":[1.0,0.4371139705181122,0.4371139705181122],"min":[0.7860424518585205,-0.4371139705181122,-0.4371139705181122],"type":"VEC3"},{"bufferView":19,"componentType":5126,"count":52,"max":[2.1931166648864748,1.6857454776763917],"min":[-0.6857454180717468,-1.1931166648864747],"type":"VEC2"},{"bufferView":20,"componentType":5125,"count":78,"max":[51.0],"min":[0.0],"type":"SCALAR"},{"bufferView":21,"componentType":5126,"count":52,"max":[0.005765614565461874,7.474549293518066,7.474549293518066],"min":[1.4210854715202005e-14,0.005765614565461874,0.005765614565461874],"type":"VEC3"},{"bufferView":22,"componentType":5126,"count":52,"max":[1.1754943508222876e-38,0.4371139705181122,0.4371139705181122],"min":[-1.0,-0.4371139705181122,-0.4371139705181122],"type":"VEC3"},{"bufferView":23,"componentType":5126,"count":52,"max":[0.0010141285602003337,0.9997296929359436],"min":[-1.8985354900360108,-1.0031864643096924],"type":"VEC2"}],"asset":{"generator":"SimLab GLTF","version":"2.0"},"bufferViews":[{"buffer":0,"byteLength":1164,"target":34963},{"buffer":0,"byteLength":1908,"byteOffset":1164,"byteStride":12,"target":34962},{"buffer":0,"byteLength":1908,"byteOffset":3072,"byteStride":12,"target":34962},{"buffer":0,"byteLength":1272,"byteOffset":4980,"byteStride":8,"target":34962},{"buffer":0,"byteLength":648,"byteOffset":6252,"target":34963},{"buffer":0,"byteLength":1152,"byteOffset":6900,"byteStride":12,"target":34962},{"buffer":0,"byteLength":1152,"byteOffset":8052,"byteStride":12,"target":34962},{"buffer":0,"byteLength":768,"byteOffset":9204,"byteStride":8,"target":34962},{"buffer":0,"byteLength":792,"byteOffset":9972,"target":34963},{"buffer":0,"byteLength":1344,"byteOffset":10764,"byteStride":12,"target":34962},{"buffer":0,"byteLength":1344,"byteOffset":12108,"byteStride":12,"target":34962},{"buffer":0,"byteLength":896,"byteOffset":13452,"byteStride":8,"target":34962},{"buffer":0,"byteLength":2124,"byteOffset":14348,"target":34963},{"buffer":0,"byteLength":3228,"byteOffset":16472,"byteStride":12,"target":34962},{"buffer":0,"byteLength":3228,"byteOffset":19700,"byteStride":12,"target":34962},{"buffer":0,"byteLength":2152,"byteOffset":22928,"byteStride":8,"target":34962},{"buffer":0,"byteLength":312,"byteOffset":25080,"target":34963},{"buffer":0,"byteLength":624,"byteOffset":25392,"byteStride":12,"target":34962},{"buffer":0,"byteLength":624,"byteOffset":26016,"byteStride":12,"target":34962},{"buffer":0,"byteLength":416,"byteOffset":26640,"byteStride":8,"target":34962},{"buffer":0,"byteLength":312,"byteOffset":27056,"target":34963},{"buffer":0,"byteLength":624,"byteOffset":27368,"byteStride":12,"target":34962},{"buffer":0,"byteLength":624,"byteOffset":27992,"byteStride":12,"target":34962},{"buffer":0,"byteLength":416,"byteOffset":28616,"byteStride":8,"target":34962}],"buffers":[{"byteLength":29032,"uri":"legobox.bin"}],"images":[{"mimeType":"image/png","uri":"Textures/1.png"},{"mimeType":"image/png","uri":"Textures/3.png"},{"mimeType":"image/png","uri":"Textures/2.png"},{"mimeType":"image/png","uri":"Textures/4.png"},{"mimeType":"image/png","uri":"Textures/right.png"},{"mimeType":"image/png","uri":"Textures/left.png"}],"materials":[{"alphaMode":"OPAQUE","doubleSided":true,"pbrMetallicRoughness":{"baseColorTexture":{"index":0},"metallicFactor":0.0}},{"alphaMode":"OPAQUE","doubleSided":true,"pbrMetallicRoughness":{"baseColorTexture":{"index":1},"metallicFactor":0.0}},{"alphaMode":"OPAQUE","doubleSided":true,"pbrMetallicRoughness":{"baseColorTexture":{"index":2},"metallicFactor":0.0}},{"alphaMode":"OPAQUE","doubleSided":true,"pbrMetallicRoughness":{"baseColorTexture":{"index":3},"metallicFactor":0.0}},{"alphaMode":"OPAQUE","doubleSided":true,"pbrMetallicRoughness":{"baseColorTexture":{"index":4},"metallicFactor":0.0}},{"alphaMode":"OPAQUE","doubleSided":true,"pbrMetallicRoughness":{"baseColorTexture":{"index":5},"metallicFactor":0.0}}],"meshes":[{"primitives":[{"attributes":{"NORMAL":2,"POSITION":1,"TEXCOORD_0":3},"indices":0,"material":0,"mode":4}]},{"primitives":[{"attributes":{"NORMAL":6,"POSITION":5,"TEXCOORD_0":7},"indices":4,"material":1,"mode":4}]},{"primitives":[{"attributes":{"NORMAL":10,"POSITION":9,"TEXCOORD_0":11},"indices":8,"material":2,"mode":4}]},{"primitives":[{"attributes":{"NORMAL":14,"POSITION":13,"TEXCOORD_0":15},"indices":12,"material":3,"mode":4}]},{"primitives":[{"attributes":{"NORMAL":18,"POSITION":17,"TEXCOORD_0":19},"indices":16,"material":4,"mode":4}]},{"primitives":[{"attributes":{"NORMAL":22,"POSITION":21,"TEXCOORD_0":23},"indices":20,"material":5,"mode":4}]}],"nodes":[{"children":[1,2],"matrix":[1.0,0.0,0.0,0.0,0.0,4.4896593387466768e-11,-1.0,0.0,0.0,1.0,4.4896593387466768e-11,0.0,0.0,0.0,0.0,1.0]},{"name":"Camera-2","rotation":[-0.7071067690849304,0.0,0.0,-0.7071067690849304],"translation":[-1.0490417423625331e-8,-14.404999732971192,-2.9087066977240285e-8]},{"name":"Assembly-2","children":[3],"rotation":[0.0,0.0,0.0,-1.0],"scale":[0.0010000000474974514,0.0010000000474974514,0.0010000000474974514]},{"children":[4,7,10,13,16,19,22],"rotation":[0.0,0.0,0.0,-1.0],"scale":[254.0,254.0,254.0],"translation":[-1800.0,-955.0,-950.0]},{"name":"3DGeom-1","children":[6],"rotation":[0.0,0.0,0.0,-1.0]},{"mesh":0},{"children":[5]},{"name":"3DGeom-2","children":[9],"rotation":[0.0,0.0,0.0,-1.0]},{"mesh":1},{"children":[8]},{"name":"3DGeom-3","children":[12],"rotation":[0.0,0.0,0.0,-1.0]},{"mesh":2},{"children":[11]},{"name":"3DGeom-4","children":[15],"rotation":[0.0,0.0,0.0,-1.0]},{"mesh":3},{"children":[14]},{"name":"3DGeom-5","children":[18],"rotation":[0.0,0.0,0.0,-1.0]},{"mesh":4},{"children":[17]},{"name":"3DGeom-6","children":[21],"rotation":[0.0,0.0,0.0,-1.0]},{"mesh":5},{"children":[20]},{"name":"2DGeom","rotation":[0.0,0.0,0.0,-1.0]}],"samplers":[{"wrapS":10497,"wrapT":10497}],"scene":0,"scenes":[{"nodes":[0]}],"textures":[{"source":0},{"source":1},{"source":2},{"source":3},{"source":4},{"source":5}]}